<?xml version="1.0" encoding="UTF-8" standalone="no"?>
<!DOCTYPE svg PUBLIC "-//W3C//DTD SVG 1.1//EN"
"http://www.w3.org/Graphics/SVG/1.1/DTD/svg11.dtd">
<svg xmlns="http://www.w3.org/2000/svg"
xmlns:xlink="http://www.w3.org/1999/xlink" xml:space="preserve"
width="529pt" height="795pt"
viewBox="0 0 529 795">
<g font-family="sans-serif" font-weight="bold">
<g transform="translate(0.17079,0) scale(0.49956) translate(425.5852,171.7376)" stroke="#7b7569" fill="none">
<path d="M575.4601,511.5899 L89.0004,511.5899 89.0004,-114.5376 575.4601,-114.5376 z" fill="#7b7569"/>

<path d="M574.6741,842.5033 L334.4954,842.5033 334.4954,470.0799 574.6741,470.0799 z" fill="#7b7569"/>

<path d="M574.6741,1362.4586 L109.4904,1362.4586 109.4904,1014.3891 574.6741,1014.3891 z" fill="#7b7569"/>

<path d="M130.5104,1362.4586 L-368.3852,1362.4586 -368.3852,1014.3891 130.5104,1014.3891 z" fill="#7b7569"/>

<path d="M355.5154,1035.4091 L97.4189,1035.4091 99.7009,504.3828 355.5154,504.3828 z" fill="#7b7569"/>

<path d="M574.6741,1035.4091 L334.4954,1035.4091 334.4954,821.4833 574.6741,821.4833 z" fill="#7b7569"/>

<path d="M133.9656,474.7737 L118.0478,1035.4091 -368.3852,1035.4091 -368.3852,-106.0476 130.4092,-106.0476 z" fill="#7b7569"/>
</g><g transform="translate(0.17079,0) scale(0.49956) translate(425.5852,171.7376)" stroke="#d9d4ad" fill="none">
<path d="M126.0004,-77.5376 L126.0004,474.5899 538.4601,474.5899 538.4601,-77.5376 z" fill="#d9d4ad"/>

<path d="M351.0054,486.5899 L351.0054,526.5957 339.0054,526.5957 339.0054,825.9933 351.0054,825.9933 558.1641,825.9933 558.1641,486.5899 z" fill="#d9d4ad"/>

<path d="M126.0004,1030.8991 L126.0004,1345.9486 558.1641,1345.9486 558.1641,1030.8991 z" fill="#d9d4ad"/>

<path d="M-351.8752,1030.8991 L-351.8752,1345.9486 114.0004,1345.9486 114.0004,1030.8991 112.1879,1030.8991 112.1879,1018.8991 -8.8178,1018.8991 -8.8178,1030.8991 z" fill="#d9d4ad"/>

<path d="M114,1018.8991 L114,1030.8991 339.0054,1030.8991 339.0054,1018.8991 339.0054,1014.8379 351.0054,1014.8379 351.0054,934.8379 339.0054,934.8379 339.0054,520.8928 339.0054,474.5899 116.1401,474.5899 116.1401,520.8928 116.1395,520.8928 102.0014,1018.8475 114,1018.8991 z" fill="#d9d4ad"/>

<path d="M558.1641,1018.8991 L558.1641,837.9933 351.0054,837.9933 351.0054,1018.8991 z" fill="#d9d4ad"/>

<path d="M101.9999,1018.8991 L112.6281,644.5666 115.6082,644.6512 117.4542,474.5899 114,-89.5376 -351.8752,-89.5376 -351.8752,1018.8991 z" fill="#d9d4ad"/>
</g><g transform="translate(0.17079,0) scale(0.49956) translate(425.5852,171.7376)" stroke="#ffffff" fill="none">
<path d="M574.6941,586.2945 L574.6941,676.2945 558.1441,676.2945 558.1441,586.2945 z" fill="#ffffff"/>

<path d="M-368.4052,1188.4238 L-368.4052,1098.4238 -351.8552,1098.4238 -351.8552,1188.4238 z" fill="#ffffff"/>

<path d="M-368.4052,749.4179 L-368.4052,659.4179 -351.8552,659.4179 -351.8552,749.4179 z" fill="#ffffff"/>

<path d="M-368.4052,124.7421 L-368.4052,34.7421 -351.8552,34.7421 -351.8552,124.7421 z" fill="#ffffff"/>
</g><g transform="translate(0.17079,0) scale(0.49956) translate(425.5852,171.7376)" stroke="#7b7569" stroke-width="1.80158" fill="none">
<path d="M107.738,-99.5317 L-351.8762,-99.5317 -351.8762,-111.5337 107.738,-111.5337 z" fill="#7b7569"/>

<path d="M140.426,1030.9001 L65.425,1030.9001 65.425,1018.8981 140.426,1018.8981 z M365.427,1030.9001 L290.426,1030.9001 290.426,1018.8981 365.427,1018.8981 z" fill="#7b7569"/>

<path d="M137.8158,486.5909 L117.4532,486.5909 117.4532,474.5889 137.8158,474.5889 z M417.4552,486.5909 L255.9318,486.5909 255.9318,474.5889 417.4552,474.5889 z" fill="#7b7569"/>

<path d="M-267.9168,1207.5829 L-351.8762,1207.5829 -351.8762,1195.5809 -267.9168,1195.5809 z" fill="#7b7569"/>

<path d="M-267.9168,1345.9496 L-279.9188,1345.9496 -279.9188,1340.2906 -267.9168,1340.2906 z M-267.9168,1219.2849 L-279.9188,1219.2849 -279.9188,1195.5809 -267.9168,1195.5809 z" fill="#7b7569"/>

<path d="M351.0064,825.9943 L339.0044,825.9943 339.0044,644.4522 351.0064,644.4522 z M351.0064,520.8928 L339.0044,520.8928 339.0044,520.8918 351.0064,520.8918 z" fill="#7b7569"/>

<path d="M-139.1345,878.9001 L-351.8762,878.9001 -351.8762,866.8981 -139.1345,866.8981 z" fill="#7b7569"/>
</g><g transform="translate(0.17079,0) scale(0.49956) translate(425.5852,171.7376)" stroke="#111111" stroke-width="1.80158" fill="none">
<path d="M-279.9188,1219.2849 L-279.9188,1207.5829 -351.8752,1207.5829 -351.8752,1345.9486 -279.9188,1345.9486 -279.9188,1340.2906 -267.9168,1340.2906 -267.9168,1345.9486 114.0004,1345.9486 114.0004,1030.9191 126.0004,1030.9191 126.0004,1345.9486 558.1641,1345.9486 558.1641,1030.8991 365.427,1030.8991 365.427,1030.9001 290.426,1030.9001 290.426,1018.8981 339.0054,1018.8981 339.0054,1014.8379 351.0054,1014.8379 351.0054,1018.8981 365.427,1018.8981 365.427,1018.8991 558.1641,1018.8991 558.1641,837.9933 351.0054,837.9933 351.0054,934.8379 339.0054,934.8379 339.0054,825.9943 339.0044,825.9943 339.0044,644.4522 351.0064,644.4522 351.0064,825.9933 558.1641,825.9933 558.1641,676.2945 574.6741,676.2945 574.6741,1362.4586 -368.3852,1362.4586 -368.3852,1188.4238 -351.8752,1188.4238 -351.8752,1195.5809 -267.9168,1195.5809 -267.9168,1219.2849 z M-351.8752,866.8981 L-139.1345,866.8981 -139.1345,878.9001 -351.8752,878.9001 -351.8752,1018.8991 -8.8178,1018.8991 -8.8178,1030.8991 -351.8752,1030.8991 -351.8752,1098.4238 -368.3852,1098.4238 -368.3852,749.4179 -351.8752,749.4179 z M113.7677,1018.8981 L140.426,1018.8981 140.426,1030.9001 65.425,1030.9001 65.425,1018.8981 112.1879,1018.8981 112.1879,1018.8913 z M109.3396,1018.8791 L102.0005,1018.8791 102.0014,1018.8476 z M-351.8752,659.4179 L-368.3852,659.4179 -368.3852,124.7421 -351.8752,124.7421 z M339.0044,520.8918 L339.0054,520.8918 339.0054,486.5909 255.9318,486.5909 255.9318,474.5889 417.4552,474.5889 417.4552,474.5899 538.4601,474.5899 538.4601,-77.5376 126.0004,-77.5376 126.0004,474.5699 117.4541,474.5699 114,-89.5376 -351.8752,-89.5376 -351.8752,34.7421 -368.3852,34.7421 -368.3852,-106.0476 -351.8762,-106.0476 -351.8762,-111.5337 89.0004,-111.5337 89.0004,-114.5376 575.4601,-114.5376 575.4601,511.5899 574.6741,511.5899 574.6741,586.2945 558.1641,586.2945 558.1641,486.5899 417.4552,486.5899 417.4552,486.5909 351.0054,486.5909 351.0054,520.8918 351.0064,520.8918 351.0064,520.8928 339.0044,520.8928 z M137.8158,486.5909 L117.4532,486.5909 117.4532,474.5889 137.8158,474.5889 z"/>
</g><g transform="translate(0.17079,0) scale(0.49956) translate(425.5852,171.7376)" stroke="#ffffff" stroke-width="0.60053" opacity="1" fill="none">
<path d="M478.16413,1008.89912 C478.16413,1014.42197 482.64128,1018.89912 488.16413,1018.89912 L548.16413,1018.89912 C553.68698,1018.89912 558.16413,1014.42197 558.16413,1008.89912 L558.16413,948.89912 C558.16413,943.37627 553.68698,938.89912 548.16413,938.89912 L488.16413,938.89912 C482.64128,938.89912 478.16413,943.37627 478.16413,948.89912 z" fill="#ffffff"/>
</g><g transform="translate(0.17079,0) scale(0.49956) translate(425.5852,171.7376)" stroke="#000000" stroke-width="0.60053" opacity="1" fill="none">
<path d="M478.16413,1008.89912 C478.16413,1014.42197 482.64128,1018.89912 488.16413,1018.89912 L548.16413,1018.89912 C553.68698,1018.89912 558.16413,1014.42197 558.16413,1008.89912 L558.16413,948.89912 C558.16413,943.37627 553.68698,938.89912 548.16413,938.89912 L488.16413,938.89912 C482.64128,938.89912 478.16413,943.37627 478.16413,948.89912 z"/>

<path d="M482.16413,1008.89912 C482.16413,1012.21283 484.85042,1014.89912 488.16413,1014.89912 L548.16413,1014.89912 C551.47784,1014.89912 554.16413,1012.21283 554.16413,1008.89912 L554.16413,948.89912 C554.16413,945.58541 551.47784,942.89912 548.16413,942.89912 L488.16413,942.89912 C484.85042,942.89912 482.16413,945.58541 482.16413,948.89912 z"/>

<ellipse cx="493.16412" cy="953.89911" rx="3" ry="3"/>
</g><g transform="translate(0.17079,0) scale(0.49956) translate(425.5852,171.7376)" stroke="#ffffff" stroke-width="0.60053" opacity="1" fill="none">
<path d="M30.61166,1340.94856 L-129.38834,1340.94856 -129.38834,1345.94856 30.61166,1345.94856 z" fill="#ffffff"/>

<path d="M30.61166,1145.94856 L-129.38834,1145.94856 -129.38834,1150.94856 30.61166,1150.94856 z" fill="#ffffff"/>

<path d="M30.61166,1150.94856 L25.61166,1150.94856 25.61166,1340.94856 30.61166,1340.94856 z" fill="#ffffff"/>

<path d="M-124.38834,1150.94856 L-129.38834,1150.94856 -129.38834,1340.94856 -124.38834,1340.94856 z" fill="#ffffff"/>

<path d="M25.61166,1150.94856 L-124.38834,1150.94856 -124.38834,1340.94856 25.61166,1340.94856 z" fill="#ffffff"/>
</g><g transform="translate(0.17079,0) scale(0.49956) translate(425.5852,171.7376)" stroke="#000000" stroke-width="0.60053" opacity="1" fill="none">
<path d="M25.61166,1150.94856 L25.61166,1340.94856"/>

<path d="M-124.38834,1150.94856 L-124.38834,1340.94856"/>

<path d="M30.61166,1150.94856 L-129.38834,1150.94856"/>

<path d="M30.61166,1340.94856 L-129.38834,1340.94856"/>

<path d="M30.61166,1145.94856 L-129.38834,1145.94856 -129.38834,1345.94856 30.61166,1345.94856 z"/>
</g><g transform="translate(0.17079,0) scale(0.49956) translate(425.5852,171.7376)" stroke="#ffffff" stroke-width="0.60053" opacity="1" fill="none">
<path d="M20.61166,1308.94856 C20.61166,1307.29171 19.26851,1305.94856 17.61166,1305.94856 L-43.88834,1305.94856 C-45.54519,1305.94856 -46.88834,1307.29171 -46.88834,1308.94856 L-46.88834,1332.94856 C-46.88834,1334.60541 -45.54519,1335.94856 -43.88834,1335.94856 L17.61166,1335.94856 C19.26851,1335.94856 20.61166,1334.60541 20.61166,1332.94856 z" fill="#ffffff"/>
</g><g transform="translate(0.17079,0) scale(0.49956) translate(425.5852,171.7376)" stroke="#000000" stroke-width="0.60053" opacity="1" fill="none">
<path d="M20.61166,1308.94856 C20.61166,1307.29171 19.26851,1305.94856 17.61166,1305.94856 L-43.88834,1305.94856 C-45.54519,1305.94856 -46.88834,1307.29171 -46.88834,1308.94856 L-46.88834,1332.94856 C-46.88834,1334.60541 -45.54519,1335.94856 -43.88834,1335.94856 L17.61166,1335.94856 C19.26851,1335.94856 20.61166,1334.60541 20.61166,1332.94856 z"/>
</g><g transform="translate(0.17079,0) scale(0.49956) translate(425.5852,171.7376)" stroke="#ffffff" stroke-width="0.60053" opacity="1" fill="none">
<path d="M-51.88834,1308.94856 C-51.88834,1307.29171 -53.23149,1305.94856 -54.88834,1305.94856 L-116.38834,1305.94856 C-118.04519,1305.94856 -119.38834,1307.29171 -119.38834,1308.94856 L-119.38834,1332.94856 C-119.38834,1334.60541 -118.04519,1335.94856 -116.38834,1335.94856 L-54.88834,1335.94856 C-53.23149,1335.94856 -51.88834,1334.60541 -51.88834,1332.94856 z" fill="#ffffff"/>
</g><g transform="translate(0.17079,0) scale(0.49956) translate(425.5852,171.7376)" stroke="#000000" stroke-width="0.60053" opacity="1" fill="none">
<path d="M-51.88834,1308.94856 C-51.88834,1307.29171 -53.23149,1305.94856 -54.88834,1305.94856 L-116.38834,1305.94856 C-118.04519,1305.94856 -119.38834,1307.29171 -119.38834,1308.94856 L-119.38834,1332.94856 C-119.38834,1334.60541 -118.04519,1335.94856 -116.38834,1335.94856 L-54.88834,1335.94856 C-53.23149,1335.94856 -51.88834,1334.60541 -51.88834,1332.94856 z"/>
</g><g transform="translate(0.17079,0) scale(0.49956) translate(425.5852,171.7376)" stroke="#ffffff" stroke-width="0.60053" opacity="1" fill="none">
<path d="M347.1702,1015.89912 C347.1702,1017.55597 348.51335,1018.89912 350.1702,1018.89912 L380.1702,1018.89912 C381.82705,1018.89912 383.1702,1017.55597 383.1702,1015.89912 L383.1702,1006.89912 C383.1702,1005.24227 381.82705,1003.89912 380.1702,1003.89912 L350.1702,1003.89912 C348.51335,1003.89912 347.1702,1005.24227 347.1702,1006.89912 z" fill="#ffffff"/>

<path d="M352.1702,1003.89912 C342.1702,983.14912 352.1702,963.89912 365.1702,963.89912 378.1702,963.89912 388.1702,983.14912 378.1702,1003.89912 z" fill="#ffffff"/>
</g><g transform="translate(0.17079,0) scale(0.49956) translate(425.5852,171.7376)" stroke="#000000" stroke-width="0.60053" opacity="1" fill="none">
<path d="M347.1702,1015.89912 C347.1702,1017.55597 348.51335,1018.89912 350.1702,1018.89912 L380.1702,1018.89912 C381.82705,1018.89912 383.1702,1017.55597 383.1702,1015.89912 L383.1702,1006.89912 C383.1702,1005.24227 381.82705,1003.89912 380.1702,1003.89912 L350.1702,1003.89912 C348.51335,1003.89912 347.1702,1005.24227 347.1702,1006.89912 z"/>

<ellipse cx="365.1702" cy="1011.39911" rx="2" ry="2"/>

<path d="M352.1702,1003.89912 C342.1702,983.14912 352.1702,963.89912 365.1702,963.89912 378.1702,963.89912 388.1702,983.14912 378.1702,1003.89912"/>
</g><g transform="translate(0.17079,0) scale(0.49956) translate(425.5852,171.7376)" stroke="#ffffff" stroke-width="0.60053" opacity="1" fill="none">
<path d="M504.34201,216.31712 C504.34201,214.10798 502.55115,212.31712 500.34201,212.31712 L493.34201,212.31712 C491.13287,212.31712 489.34201,214.10798 489.34201,216.31712 L489.34201,287.31712 C489.34201,289.52626 491.13287,291.31712 493.34201,291.31712 L500.34201,291.31712 C502.55115,291.31712 504.34201,289.52626 504.34201,287.31712 z" fill="#ffffff"/>

<path d="M272.85721,216.31712 C272.85721,214.10798 271.06635,212.31712 268.85721,212.31712 L261.85721,212.31712 C259.64807,212.31712 257.85721,214.10798 257.85721,216.31712 L257.85721,287.31712 C257.85721,289.52626 259.64807,291.31712 261.85721,291.31712 L268.85721,291.31712 C271.06635,291.31712 272.85721,289.52626 272.85721,287.31712 z" fill="#ffffff"/>

<path d="M489.34201,213.31712 C489.34201,209.45113 486.208,206.31712 482.34201,206.31712 L279.85721,206.31712 C275.99122,206.31712 272.85721,209.45113 272.85721,213.31712 L272.85721,296.31712 489.34201,296.31712 z" fill="#ffffff"/>
</g><g transform="translate(0.17079,0) scale(0.49956) translate(425.5852,171.7376)" stroke="#000000" stroke-width="0.60053" opacity="1" fill="none">
<path d="M504.34201,216.31712 C504.34201,214.10798 502.55115,212.31712 500.34201,212.31712 L493.34201,212.31712 C491.13287,212.31712 489.34201,214.10798 489.34201,216.31712 L489.34201,287.31712 C489.34201,289.52626 491.13287,291.31712 493.34201,291.31712 L500.34201,291.31712 C502.55115,291.31712 504.34201,289.52626 504.34201,287.31712 z"/>

<path d="M272.85721,216.31712 C272.85721,214.10798 271.06635,212.31712 268.85721,212.31712 L261.85721,212.31712 C259.64807,212.31712 257.85721,214.10798 257.85721,216.31712 L257.85721,287.31712 C257.85721,289.52626 259.64807,291.31712 261.85721,291.31712 L268.85721,291.31712 C271.06635,291.31712 272.85721,289.52626 272.85721,287.31712 z"/>

<path d="M489.34201,213.31712 C489.34201,209.45113 486.208,206.31712 482.34201,206.31712 L279.85721,206.31712 C275.99122,206.31712 272.85721,209.45113 272.85721,213.31712 L272.85721,296.31712 489.34201,296.31712 z"/>

<line x1="489.34201" y1="271.31712" x2="272.85721" y2="271.31712"/>

<line x1="381.09961" y1="271.31712" x2="381.09961" y2="206.31712"/>
</g><g transform="translate(0.17079,0) scale(0.49956) translate(425.5852,171.7376)" stroke="#ffffff" stroke-width="0.60053" opacity="1" fill="none">
<path d="M504.50342,1030.89912 L521.50342,1030.89912 521.50342,1076.97912 504.50342,1076.97912 z" fill="#ffffff"/>

<path d="M521.50342,1076.97912 L521.50342,1077.74712 519.03842,1078.89912 506.96842,1078.89912 504.50342,1077.74712 504.50342,1076.97912 z" fill="#ffffff"/>
</g><g transform="translate(0.17079,0) scale(0.49956) translate(425.5852,171.7376)" stroke="#000000" stroke-width="0.60053" opacity="1" fill="none">
<path d="M504.50342,1030.89912 L521.50342,1030.89912 521.50342,1076.97912 504.50342,1076.97912 z"/>

<path d="M521.50342,1076.97912 L521.50342,1077.74712 519.03842,1078.89912 506.96842,1078.89912 504.50342,1077.74712 504.50342,1076.97912"/>

<path d="M521.50342,1077.74712 L504.50342,1077.74712"/>
</g><g transform="translate(0.17079,0) scale(0.49956) translate(425.5852,171.7376)" stroke="#ffffff" stroke-width="0.60053" opacity="1" fill="none">
<path d="M-101.8752,791.8991 C-101.8752,789.68996 -103.66606,787.8991 -105.8752,787.8991 L-112.8752,787.8991 C-115.08434,787.8991 -116.8752,789.68996 -116.8752,791.8991 L-116.8752,857.8991 C-116.8752,860.10824 -115.08434,861.8991 -112.8752,861.8991 L-105.8752,861.8991 C-103.66606,861.8991 -101.8752,860.10824 -101.8752,857.8991 z" fill="#ffffff"/>

<path d="M-272.8752,620.8991 C-272.8752,618.68996 -274.66606,616.8991 -276.8752,616.8991 L-342.8752,616.8991 C-345.08434,616.8991 -346.8752,618.68996 -346.8752,620.8991 L-346.8752,627.8991 C-346.8752,630.10824 -345.08434,631.8991 -342.8752,631.8991 L-276.8752,631.8991 C-274.66606,631.8991 -272.8752,630.10824 -272.8752,627.8991 z" fill="#ffffff"/>

<path d="M-116.8752,866.8991 L-351.8752,866.8991 -351.8752,631.8991 -273.8752,631.8991 C-270.00921,631.8991 -266.8752,635.03311 -266.8752,638.8991 L-266.8752,781.8991 -123.8752,781.8991 C-120.00921,781.8991 -116.8752,785.03311 -116.8752,788.8991 z" fill="#ffffff"/>
</g><g transform="translate(0.17079,0) scale(0.49956) translate(425.5852,171.7376)" stroke="#000000" stroke-width="0.60053" opacity="1" fill="none">
<path d="M-116.8752,866.8991 L-351.8752,866.8991 -351.8752,631.8991 -273.8752,631.8991 C-270.00921,631.8991 -266.8752,635.03311 -266.8752,638.8991 L-266.8752,781.8991 -123.8752,781.8991 C-120.00921,781.8991 -116.8752,785.03311 -116.8752,788.8991 z"/>

<path d="M-101.8752,791.8991 C-101.8752,789.68996 -103.66606,787.8991 -105.8752,787.8991 L-112.8752,787.8991 C-115.08434,787.8991 -116.8752,789.68996 -116.8752,791.8991 L-116.8752,857.8991 C-116.8752,860.10824 -115.08434,861.8991 -112.8752,861.8991 L-105.8752,861.8991 C-103.66606,861.8991 -101.8752,860.10824 -101.8752,857.8991 z"/>

<path d="M-272.8752,620.8991 C-272.8752,618.68996 -274.66606,616.8991 -276.8752,616.8991 L-342.8752,616.8991 C-345.08434,616.8991 -346.8752,618.68996 -346.8752,620.8991 L-346.8752,627.8991 C-346.8752,630.10824 -345.08434,631.8991 -342.8752,631.8991 L-276.8752,631.8991 C-274.66606,631.8991 -272.8752,630.10824 -272.8752,627.8991 z"/>

<path d="M-116.8752,841.8991 L-326.8752,841.8991 -326.8752,631.8991"/>

<line x1="-266.8752" y1="781.8991" x2="-326.8752" y2="781.8991"/>

<line x1="-266.8752" y1="781.8991" x2="-266.8752" y2="841.8991"/>

<line x1="-191.8752" y1="841.8991" x2="-191.8752" y2="781.8991"/>

<line x1="-266.8752" y1="706.8991" x2="-326.8752" y2="706.8991"/>
</g><g transform="translate(0.17079,0) scale(0.49956) translate(425.5852,171.7376)" stroke="#ffffff" stroke-width="0.60053" opacity="1" fill="none">
<path d="M437.22852,978.89912 C422.22852,978.89912 407.22852,986.89912 407.22852,998.89912 L407.22852,1018.89912 467.22852,1018.89912 467.22852,998.89912 C467.22852,986.89912 452.22852,978.89912 437.22852,978.89912 z" fill="#ffffff"/>
</g><g transform="translate(0.17079,0) scale(0.49956) translate(425.5852,171.7376)" stroke="#000000" stroke-width="0.60053" opacity="1" fill="none">
<path d="M437.22852,978.89912 C422.22852,978.89912 407.22852,986.89912 407.22852,998.89912 L407.22852,1018.89912 467.22852,1018.89912 467.22852,998.89912 C467.22852,986.89912 452.22852,978.89912 437.22852,978.89912 z"/>

<path d="M438.72852,997.89912 L435.72852,997.89912 435.72852,1012.89912 438.72852,1012.89912 z"/>

<ellipse cx="447.22852" cy="1009.89911" rx="2.5" ry="2.5"/>

<ellipse cx="427.22852" cy="1009.89911" rx="2.5" ry="2.5"/>

<path d="M437.22852,982.39912 C425.22852,982.39912 412.22852,988.89912 412.22852,994.89912 412.22852,1002.89912 425.22852,1004.89912 435.72852,1004.89912"/>

<path d="M437.22852,982.39912 C449.22852,982.39912 462.22852,988.89912 462.22852,994.89912 462.22852,1002.89912 449.22852,1004.89912 438.72852,1004.89912"/>

<path d="M154.21286,-16.22323 L154.95227,-16.1046 169.63446,-22.95102 170.01887,-23.59369 z" fill="#000000"/>

<path d="M154.21286,-16.22323 L154.95227,-16.1046 169.63446,-22.95102 170.01887,-23.59369"/>
</g><g transform="translate(0.17079,0) scale(0.49956) translate(425.5852,171.7376)" stroke="#181818" stroke-width="0.60053" opacity="1" fill="none">
<path d="M153.05279,-15.68228 L171.17894,-24.13464 159.52313,-49.13061 141.39698,-40.67825 z" fill="#181818"/>
</g><g transform="translate(0.17079,0) scale(0.49956) translate(425.5852,171.7376)" stroke="#000000" stroke-width="0.60053" opacity="1" fill="none">
<path d="M153.05279,-15.68228 L171.17894,-24.13464 159.52313,-49.13061 141.39698,-40.67825 z"/>

<path d="M487.95481,-5.28065 L488.44498,-4.71449 504.09298,-0.52162 504.80056,-0.76685 z" fill="#000000"/>

<path d="M487.95481,-5.28065 L488.44498,-4.71449 504.09298,-0.52162 504.80056,-0.76685"/>
</g><g transform="translate(0.17079,0) scale(0.49956) translate(425.5852,171.7376)" stroke="#181818" stroke-width="0.60053" opacity="1" fill="none">
<path d="M486.71843,-5.61194 L506.03695,-0.43556 513.17517,-27.07579 493.85666,-32.25217 z" fill="#181818"/>
</g><g transform="translate(0.17079,0) scale(0.49956) translate(425.5852,171.7376)" stroke="#000000" stroke-width="0.60053" opacity="1" fill="none">
<path d="M486.71843,-5.61194 L506.03695,-0.43556 513.17517,-27.07579 493.85666,-32.25217 z"/>
</g><g transform="translate(0.17079,0) scale(0.49956) translate(425.5852,171.7376)" stroke="#ffffff" stroke-width="0.60053" opacity="1" fill="none">
<path d="M501.46009,399.58988 C501.46009,397.38074 499.66923,395.58988 497.46009,395.58988 L490.46009,395.58988 C488.25095,395.58988 486.46009,397.38074 486.46009,399.58988 L486.46009,465.58988 C486.46009,467.79902 488.25095,469.58988 490.46009,469.58988 L497.46009,469.58988 C499.66923,469.58988 501.46009,467.79902 501.46009,465.58988 z" fill="#ffffff"/>

<path d="M266.46009,399.58988 C266.46009,397.38074 264.66923,395.58988 262.46009,395.58988 L255.46009,395.58988 C253.25095,395.58988 251.46009,397.38074 251.46009,399.58988 L251.46009,465.58988 C251.46009,467.79902 253.25095,469.58988 255.46009,469.58988 L262.46009,469.58988 C264.66923,469.58988 266.46009,467.79902 266.46009,465.58988 z" fill="#ffffff"/>

<path d="M486.46009,474.58988 L266.46009,474.58988 266.46009,341.58988 C266.46009,337.72389 269.5941,334.58988 273.46009,334.58988 L329.46009,334.58988 C333.32608,334.58988 336.46009,337.72389 336.46009,341.58988 L336.46009,389.58988 479.46009,389.58988 C483.32608,389.58988 486.46009,392.72389 486.46009,396.58988 z" fill="#ffffff"/>
</g><g transform="translate(0.17079,0) scale(0.49956) translate(425.5852,171.7376)" stroke="#000000" stroke-width="0.60053" opacity="1" fill="none">
<path d="M486.46009,474.58988 L266.46009,474.58988 266.46009,341.58988 C266.46009,337.72389 269.5941,334.58988 273.46009,334.58988 L329.46009,334.58988 C333.32608,334.58988 336.46009,337.72389 336.46009,341.58988 L336.46009,389.58988 479.46009,389.58988 C483.32608,389.58988 486.46009,392.72389 486.46009,396.58988 z"/>

<path d="M501.46009,399.58988 C501.46009,397.38074 499.66923,395.58988 497.46009,395.58988 L490.46009,395.58988 C488.25095,395.58988 486.46009,397.38074 486.46009,399.58988 L486.46009,465.58988 C486.46009,467.79902 488.25095,469.58988 490.46009,469.58988 L497.46009,469.58988 C499.66923,469.58988 501.46009,467.79902 501.46009,465.58988 z"/>

<path d="M266.46009,399.58988 C266.46009,397.38074 264.66923,395.58988 262.46009,395.58988 L255.46009,395.58988 C253.25095,395.58988 251.46009,397.38074 251.46009,399.58988 L251.46009,465.58988 C251.46009,467.79902 253.25095,469.58988 255.46009,469.58988 L262.46009,469.58988 C264.66923,469.58988 266.46009,467.79902 266.46009,465.58988 z"/>

<path d="M486.46009,449.58988 L266.46009,449.58988"/>

<line x1="336.46009" y1="389.58988" x2="336.46009" y2="449.58988"/>

<line x1="411.46009" y1="449.58988" x2="411.46009" y2="389.58988"/>
</g><g transform="translate(0.17079,0) scale(0.49956) translate(425.5852,171.7376)" stroke="#ffffff" stroke-width="0.60053" opacity="1" fill="none">
<path d="M307.90501,1088.89912 C307.90501,1090.00369 308.80044,1090.89912 309.90501,1090.89912 L365.90501,1090.89912 C367.00958,1090.89912 367.90501,1090.00369 367.90501,1088.89912 L367.90501,1030.89912 307.90501,1030.89912 z" fill="#ffffff"/>
</g><g transform="translate(0.17079,0) scale(0.49956) translate(425.5852,171.7376)" stroke="#000000" stroke-width="0.60053" opacity="1" fill="none">
<path d="M307.90501,1088.89912 C307.90501,1090.00369 308.80044,1090.89912 309.90501,1090.89912 L365.90501,1090.89912 C367.00958,1090.89912 367.90501,1090.00369 367.90501,1088.89912 L367.90501,1030.89912 307.90501,1030.89912 z"/>

<path d="M363.90501,1090.89912 L363.90501,1094.89912 359.90501,1094.89912"/>

<line x1="307.90501" y1="1084.89912" x2="367.90501" y2="1084.89912"/>

<path d="M356.34482,228.99452 L354.54482,220.89452 351.54482,219.99452 347.34482,227.19452 z" fill="#000000"/>
</g><g transform="translate(0.17079,0) scale(0.49956) translate(425.5852,171.7376)" stroke="#e0ac69" stroke-width="0.60053" opacity="1" fill="none">
<path d="M365.34482,234.99452 L356.34482,228.99452 347.34482,227.19452 356.34482,234.69452 z" fill="#e0ac69"/>
</g><g transform="translate(0.17079,0) scale(0.49956) translate(425.5852,171.7376)" stroke="#000000" stroke-width="0.60053" opacity="1" fill="none">
<path d="M322.74482,228.99452 L324.54482,220.89452 327.54482,219.99452 331.74482,227.19452 z" fill="#000000"/>
</g><g transform="translate(0.17079,0) scale(0.49956) translate(425.5852,171.7376)" stroke="#e0ac69" stroke-width="0.60053" opacity="1" fill="none">
<path d="M313.74482,234.99452 L322.74482,228.99452 331.74482,227.19452 322.74482,234.69452 z" fill="#e0ac69"/>
</g><g transform="translate(0.17079,0) scale(0.49956) translate(425.5852,171.7376)" stroke="#ffffff" stroke-width="0.60053" opacity="1" fill="none">
<path d="M339.54482,249.99452 C328.14482,249.99452 327.90907,249.43235 316.74482,247.29452 313.80907,246.73235 313.50482,246.48452 311.34482,244.59452 309.90482,243.33452 309.54482,242.85055 309.54482,240.99452 309.54482,238.50055 309.23003,237.04386 311.34482,235.89452 316.13003,233.29386 317.90837,235.87297 323.34482,233.49452 327.50837,231.67297 326.45245,229.46492 330.54482,227.49452 334.55245,225.56492 335.04482,225.69452 339.54482,225.69452 344.04482,225.69452 344.53719,225.56492 348.54482,227.49452 352.63719,229.46492 351.58127,231.67297 355.74482,233.49452 361.18127,235.87297 362.95961,233.29386 367.74482,235.89452 369.85961,237.04386 369.54482,238.50055 369.54482,240.99452 369.54482,242.85055 369.18482,243.33452 367.74482,244.59452 365.58482,246.48452 365.28057,246.73235 362.34482,247.29452 351.18057,249.43235 350.94482,249.99452 339.54482,249.99452" fill="#ffffff"/>
</g><g transform="translate(0.17079,0) scale(0.49956) translate(425.5852,171.7376)" stroke="#5f4936" stroke-width="0.60053" opacity="1" fill="none">
<path d="M339.54482,246.99452 C335.64482,246.99452 333.20482,246.17906 331.74482,242.79452 329.90482,238.52906 330.56489,235.90517 332.94482,231.69452 334.46489,229.00517 336.24482,228.99452 339.54482,228.99452 342.84482,228.99452 344.62475,229.00517 346.14482,231.69452 348.52475,235.90517 349.18482,238.52906 347.34482,242.79452 345.88482,246.17906 343.44482,246.99452 339.54482,246.99452" fill="#5f4936"/>
</g><g transform="translate(0.17079,0) scale(0.49956) translate(425.5852,171.7376)" stroke="#ffffff" stroke-width="0.60053" opacity="1" fill="none">
<ellipse cx="153.38039" cy="378.12979" rx="9.62" ry="9.62" fill="#ffffff"/>
</g><g transform="translate(0.17079,0) scale(0.49956) translate(425.5852,171.7376)" stroke="#000000" stroke-width="0.60053" opacity="1" fill="none">
<ellipse cx="153.38039" cy="378.12979" rx="9.62" ry="9.62"/>

<path d="M143.76039,378.12979 L126.00039,378.12979"/>

<path d="M126.00039,368.12979 L126.00039,388.12979"/>

<path d="M146.57239,371.32979 L160.18839,384.92979"/>

<path d="M146.57239,384.92979 L160.18839,371.32979"/>
</g><g transform="translate(0.17079,0) scale(0.49956) translate(425.5852,171.7376)" stroke="#ffffff" stroke-width="0.60053" opacity="1" fill="none">
<ellipse cx="153.38039" cy="215.56615" rx="9.62" ry="9.62" fill="#ffffff"/>
</g><g transform="translate(0.17079,0) scale(0.49956) translate(425.5852,171.7376)" stroke="#000000" stroke-width="0.60053" opacity="1" fill="none">
<ellipse cx="153.38039" cy="215.56615" rx="9.62" ry="9.62"/>

<path d="M143.76039,215.56615 L126.00039,215.56615"/>

<path d="M126.00039,205.56615 L126.00039,225.56615"/>

<path d="M146.57239,208.76615 L160.18839,222.36615"/>

<path d="M146.57239,222.36615 L160.18839,208.76615"/>
</g><g transform="translate(0.17079,0) scale(0.49956) translate(425.5852,171.7376)" stroke="#ffffff" stroke-width="0.60053" opacity="1" fill="none">
<ellipse cx="153.38039" cy="60.42875" rx="9.62" ry="9.62" fill="#ffffff"/>
</g><g transform="translate(0.17079,0) scale(0.49956) translate(425.5852,171.7376)" stroke="#000000" stroke-width="0.60053" opacity="1" fill="none">
<ellipse cx="153.38039" cy="60.42875" rx="9.62" ry="9.62"/>

<path d="M143.76039,60.42875 L126.00039,60.42875"/>

<path d="M126.00039,50.42875 L126.00039,70.42875"/>

<path d="M146.57239,53.62875 L160.18839,67.22875"/>

<path d="M146.57239,67.22875 L160.18839,53.62875"/>
</g><g transform="translate(0.17079,0) scale(0.49956) translate(425.5852,171.7376)" stroke="#ffffff" stroke-width="0.60053" opacity="1" fill="none">
<ellipse cx="511.08008" cy="60.42875" rx="9.62" ry="9.62" fill="#ffffff"/>
</g><g transform="translate(0.17079,0) scale(0.49956) translate(425.5852,171.7376)" stroke="#000000" stroke-width="0.60053" opacity="1" fill="none">
<ellipse cx="511.08008" cy="60.42875" rx="9.62" ry="9.62"/>

<path d="M520.70009,60.42875 L538.46009,60.42875"/>

<path d="M538.46009,70.42875 L538.46009,50.42875"/>

<path d="M517.88809,67.22875 L504.27209,53.62875"/>

<path d="M517.88809,53.62875 L504.27209,67.22875"/>
</g><g transform="translate(0.17079,0) scale(0.49956) translate(425.5852,171.7376)" stroke="#ffffff" stroke-width="0.60053" opacity="1" fill="none">
<ellipse cx="511.08008" cy="378.12979" rx="9.62" ry="9.62" fill="#ffffff"/>
</g><g transform="translate(0.17079,0) scale(0.49956) translate(425.5852,171.7376)" stroke="#000000" stroke-width="0.60053" opacity="1" fill="none">
<ellipse cx="511.08008" cy="378.12979" rx="9.62" ry="9.62"/>

<path d="M520.70009,378.12979 L538.46009,378.12979"/>

<path d="M538.46009,388.12979 L538.46009,368.12979"/>

<path d="M517.88809,384.92979 L504.27209,371.32979"/>

<path d="M517.88809,371.32979 L504.27209,384.92979"/>
</g><g transform="translate(0.17079,0) scale(0.49956) translate(425.5852,171.7376)" stroke="#ffffff" stroke-width="0.60053" opacity="1" fill="none">
<ellipse cx="513.96198" cy="235.56615" rx="9.62" ry="9.62" fill="#ffffff"/>
</g><g transform="translate(0.17079,0) scale(0.49956) translate(425.5852,171.7376)" stroke="#000000" stroke-width="0.60053" opacity="1" fill="none">
<ellipse cx="513.96198" cy="235.56615" rx="9.62" ry="9.62"/>

<path d="M523.582,235.56615 L541.342,235.56615"/>

<path d="M541.342,245.56615 L541.342,225.56615"/>

<path d="M520.77,242.36615 L507.154,228.76615"/>

<path d="M520.77,228.76615 L507.154,242.36615"/>
</g><g transform="translate(0.17079,0) scale(0.49956) translate(425.5852,171.7376)" stroke="#ffffff" stroke-width="0.60053" opacity="1" fill="none">
<path d="M404.50342,1080.89912 L504.50342,1080.89912 504.50342,1030.89912 404.50342,1030.89912 z" fill="#ffffff"/>
</g><g transform="translate(0.17079,0) scale(0.49956) translate(425.5852,171.7376)" stroke="#000000" stroke-width="0.60053" opacity="1" fill="none">
<path d="M404.50342,1080.89912 L504.50342,1080.89912 504.50342,1030.89912 404.50342,1030.89912 404.50342,1080.89912"/>

<path d="M140.42599,1029.89913 L145.42599,1029.89913 145.42599,954.89913 C184.08592,954.89913 215.42599,984.00062 215.42599,1019.89913 215.42599,984.00062 246.76606,954.89913 285.42599,954.89913 L285.42599,1029.89913 290.42599,1029.89913"/>

<line x1="140.42599" y1="1019.89913" x2="290.42599" y2="1019.89913"/>

<line x1="150.42599" y1="1019.89913" x2="150.42599" y2="955.09172"/>

<line x1="280.42599" y1="1019.89913" x2="280.42599" y2="955.09172"/>

<path d="M137.81579,475.58988 L255.93184,475.58988"/>

<path d="M255.93184,485.58988 L250.93184,485.58988 250.93184,475.58988"/>

<path d="M137.81579,485.58988 L142.81579,485.58988 142.81579,475.58988 142.81579,367.47383 C202.52663,367.47383 250.93184,415.87904 250.93184,475.58988"/>

<line x1="147.81579" y1="475.58988" x2="147.81579" y2="367.58951"/>

<line x1="558.16412" y1="676.2945" x2="558.16412" y2="586.2945"/>

<line x1="574.67412" y1="676.2945" x2="574.67412" y2="586.2945"/>

<line x1="571.41912" y1="586.2945" x2="571.41912" y2="676.2945"/>

<line x1="561.41912" y1="586.2945" x2="561.41912" y2="676.2945"/>

<line x1="561.41912" y1="596.2945" x2="571.41912" y2="596.2945"/>

<line x1="561.41912" y1="666.2945" x2="571.41912" y2="666.2945"/>

<line x1="566.41912" y1="596.2945" x2="566.41912" y2="666.2945"/>

<path d="M-8.81778,1019.89911 L112.18791,1019.89911"/>

<path d="M112.18791,1029.89911 L107.18791,1029.89911 107.18791,1019.89911"/>

<path d="M-8.81778,1029.89911 L-3.81778,1029.89911 -3.81778,1019.89911 -3.81778,908.89342 C57.48897,908.89342 107.18791,958.59236 107.18791,1019.89911"/>

<line x1="1.18222" y1="1019.89911" x2="1.18222" y2="909.00609"/>

<line x1="-351.87519" y1="1098.42384" x2="-351.87519" y2="1188.42384"/>

<line x1="-368.38519" y1="1098.42384" x2="-368.38519" y2="1188.42384"/>

<line x1="-365.13019" y1="1188.42384" x2="-365.13019" y2="1098.42384"/>

<line x1="-355.13019" y1="1188.42384" x2="-355.13019" y2="1098.42384"/>

<line x1="-355.13019" y1="1178.42384" x2="-365.13019" y2="1178.42384"/>

<line x1="-355.13019" y1="1108.42384" x2="-365.13019" y2="1108.42384"/>

<line x1="-360.13019" y1="1178.42384" x2="-360.13019" y2="1108.42384"/>

<path d="M-268.9178,1219.28492 L-268.9178,1340.29061"/>

<path d="M-278.9178,1340.29061 L-278.9178,1335.29061 -268.9178,1335.29061"/>

<path d="M-278.9178,1219.28492 L-278.9178,1224.28492 -268.9178,1224.28492 -157.91211,1224.28492 C-157.91211,1285.59167 -207.61105,1335.29061 -268.9178,1335.29061"/>

<line x1="-268.9178" y1="1229.28492" x2="-158.02477" y2="1229.28492"/>

<path d="M350.0054,934.83794 L350.0054,1014.83794"/>

<path d="M340.0054,1014.83794 L340.0054,1009.83794 350.0054,1009.83794"/>

<path d="M340.0054,934.83794 L340.0054,939.83794 350.0054,939.83794 420.0054,939.83794 C420.0054,978.49788 388.66533,1009.83794 350.0054,1009.83794"/>

<line x1="350.0054" y1="944.83794" x2="419.8266" y2="944.83794"/>
</g><g transform="translate(0.17079,0) scale(0.49956) translate(425.5852,171.7376)" stroke="#eeeeee" stroke-width="0.60053" opacity="1" fill="none">
<path d="M336.0054,510.8928 L336.0054,778.01166 338.0054,778.01166 338.0054,510.8928 z" fill="#eeeeee"/>
</g><g transform="translate(0.17079,0) scale(0.49956) translate(425.5852,171.7376)" stroke="#000000" stroke-width="0.60053" opacity="1" fill="none">
<path d="M336.0054,510.8928 L336.0054,778.01166 338.0054,778.01166 338.0054,510.8928 z"/>
</g><g transform="translate(0.17079,0) scale(0.49956) translate(425.5852,171.7376)" stroke="#eeeeee" stroke-width="0.60053" opacity="1" fill="none">
<path d="M327.0054,639.45223 L327.0054,773.01166 334.0054,773.01166 334.0054,639.45223 z" fill="#eeeeee"/>
</g><g transform="translate(0.17079,0) scale(0.49956) translate(425.5852,171.7376)" stroke="#000000" stroke-width="0.60053" opacity="1" fill="none">
<path d="M327.0054,639.45223 L327.0054,773.01166 334.0054,773.01166 334.0054,639.45223 z"/>

<line x1="336.0054" y1="644.45223" x2="334.0054" y2="644.45223"/>

<line x1="336.0054" y1="768.01166" x2="334.0054" y2="768.01166"/>

<line x1="-351.8752" y1="659.41789" x2="-351.8752" y2="749.41789"/>

<line x1="-368.3852" y1="659.41789" x2="-368.3852" y2="749.41789"/>

<line x1="-365.1302" y1="749.41789" x2="-365.1302" y2="659.41789"/>

<line x1="-355.1302" y1="749.41789" x2="-355.1302" y2="659.41789"/>

<line x1="-355.1302" y1="739.41789" x2="-365.1302" y2="739.41789"/>

<line x1="-355.1302" y1="669.41789" x2="-365.1302" y2="669.41789"/>

<line x1="-360.1302" y1="739.41789" x2="-360.1302" y2="669.41789"/>

<line x1="-351.8752" y1="34.74212" x2="-351.8752" y2="124.74212"/>

<line x1="-368.3852" y1="34.74212" x2="-368.3852" y2="124.74212"/>

<line x1="-365.1302" y1="124.74212" x2="-365.1302" y2="34.74212"/>

<line x1="-355.1302" y1="124.74212" x2="-355.1302" y2="34.74212"/>

<line x1="-355.1302" y1="114.74212" x2="-365.1302" y2="114.74212"/>

<line x1="-355.1302" y1="44.74212" x2="-365.1302" y2="44.74212"/>

<line x1="-360.1302" y1="114.74212" x2="-360.1302" y2="44.74212"/>

<path d="M288.9213,-67.61712 L288.9213,-100.98712 388.9213,-100.98712 388.9213,-67.61712"/>

<path d="M288.9213,-58.61712 L288.9213,-22.24712 388.9213,-22.24712 388.9213,-58.61712"/>
</g><g transform="translate(0.17079,0) scale(0.49956) translate(425.5852,171.7376)" stroke="#ffffff" stroke-width="0.60053" opacity="1" fill="none">
<path d="M213.9213,-85.23912 L463.9213,-85.23912 463.9213,-22.24712 213.9213,-22.24712 z" fill="#ffffff"/>

<path d="M263.9213,-85.23912 L288.9213,-100.98712 388.9213,-100.98712 413.9213,-85.23912" fill="#ffffff"/>
</g><g transform="translate(0.17079,0) scale(0.49956) translate(425.5852,171.7376)" stroke="#000000" stroke-width="0.60053" opacity="1" fill="none">
<path d="M213.9213,-85.23912 L463.9213,-85.23912 463.9213,-22.24712 213.9213,-22.24712 z"/>

<path d="M263.9213,-85.23912 L288.9213,-100.98712 388.9213,-100.98712 413.9213,-85.23912"/>
</g><g transform="translate(0.17079,0) scale(0.49956) translate(425.5852,171.7376)" stroke="#ffffff" stroke-width="0.60053" opacity="1" fill="none">
<path d="M-51.8752,1018.8991 L-51.8752,878.8991 -351.8752,878.8991 -351.8752,1018.8991 z" fill="#ffffff"/>
</g><g transform="translate(0.17079,0) scale(0.49956) translate(425.5852,171.7376)" stroke="#000000" stroke-width="0.60053" opacity="1" fill="none">
<path d="M-51.8752,1018.8991 L-51.8752,878.8991 -351.8752,878.8991 -351.8752,1018.8991 z"/>

<path d="M-51.8752,1014.8991 L-351.8752,1014.8991"/>

<path d="M-51.8752,882.8991 L-351.8752,882.8991"/>

<line x1="-326.8752" y1="1018.8991" x2="-326.8752" y2="878.8991"/>

<line x1="-301.8752" y1="1018.8991" x2="-301.8752" y2="878.8991"/>

<line x1="-276.8752" y1="1018.8991" x2="-276.8752" y2="878.8991"/>

<line x1="-251.8752" y1="1018.8991" x2="-251.8752" y2="878.8991"/>

<line x1="-226.8752" y1="1018.8991" x2="-226.8752" y2="878.8991"/>

<line x1="-201.8752" y1="1018.8991" x2="-201.8752" y2="878.8991"/>

<line x1="-176.8752" y1="1018.8991" x2="-176.8752" y2="878.8991"/>

<line x1="-151.8752" y1="1018.8991" x2="-151.8752" y2="878.8991"/>

<line x1="-126.8752" y1="1018.8991" x2="-126.8752" y2="878.8991"/>

<line x1="-101.8752" y1="1018.8991" x2="-101.8752" y2="878.8991"/>

<line x1="-76.8752" y1="1018.8991" x2="-76.8752" y2="878.8991"/>

<line x1="-51.8752" y1="948.8991" x2="-351.8752" y2="948.8991"/>

<line x1="-336.8752" y1="958.8991" x2="-351.8752" y2="948.8991"/>

<line x1="-336.8752" y1="938.8991" x2="-351.8752" y2="948.8991"/>
</g><g transform="translate(0.17079,0) scale(0.49956) translate(757.81544,380.26372)" stroke="#000000" stroke-width="0.60053" opacity="1" fill="none">
<text y="-4" font-size="20" stroke="black" stroke-width="0.30026" fill="white" text-anchor="middle">245.1 Ft²</text>
</g><g transform="translate(0.17079,0) scale(0.49956) translate(880.16996,838.02919)" stroke="#000000" stroke-width="0.60053" opacity="1" fill="none">
<text y="-4" font-size="20" stroke="black" stroke-width="0.30026" fill="white" text-anchor="middle">75.7 Ft²</text>
</g><g transform="translate(0.17079,0) scale(0.49956) translate(767.66745,1370.16143)" stroke="#000000" stroke-width="0.60053" opacity="1" fill="none">
<text y="-4" font-size="20" stroke="black" stroke-width="0.30026" fill="white" text-anchor="middle">146.6 Ft²</text>
</g><g transform="translate(0.17079,0) scale(0.49956) translate(306.6478,1370.16144)" stroke="#000000" stroke-width="0.60053" opacity="1" fill="none">
<text y="-4" font-size="20" stroke="black" stroke-width="0.30026" fill="white" text-anchor="middle">158 Ft²</text>
</g><g transform="translate(0.17079,0) scale(0.49956) translate(752.0879,941.63355) rotate(270) translate(0,10)" stroke="#000000" stroke-width="0.60053" opacity="1" fill="none">
<text y="-4" font-size="20" stroke="black" stroke-width="0.30026" fill="white" text-anchor="middle">120 Ft²</text>
</g><g transform="translate(0.17079,0) scale(0.49956) translate(868.16998,1110.18383)" stroke="#000000" stroke-width="0.60053" opacity="1" fill="none">
<text y="-4" font-size="20" stroke="black" stroke-width="0.30026" fill="white" text-anchor="middle">40.3 Ft²</text>
</g><g transform="translate(0.17079,0) scale(0.49956) translate(308.37471,646.41834)" stroke="#000000" stroke-width="0.60053" opacity="1" fill="none">
<text y="-4" font-size="20" stroke="black" stroke-width="0.30026" fill="white" text-anchor="middle">554.4 Ft²</text>
</g><g transform="translate(0.17079,0) scale(0.49956) translate(425.5852,171.7376)" stroke="#006600" stroke-width="1.80158" opacity="1" fill="none">
<line x1="-374.8852" y1="-152.2376" x2="581.9601" y2="-152.2376"/>
</g><g transform="translate(0.17079,0) scale(0.49956) translate(425.5852,171.7376)" stroke="#ffffff" stroke-width="0.60053" opacity="1" fill="none">
<line x1="-374.8852" y1="-152.2376" x2="581.9601" y2="-152.2376"/>
</g><g transform="translate(0.17079,0) scale(0.49956) translate(425.5852,171.7376)" stroke="#006600" stroke-width="1.80158" opacity="1" fill="none">
<line x1="-368.3852" y1="-126.2376" x2="-368.3852" y2="-158.7376"/>
</g><g transform="translate(0.17079,0) scale(0.49956) translate(425.5852,171.7376)" stroke="#ffffff" stroke-width="0.60053" opacity="1" fill="none">
<line x1="-368.3852" y1="-126.2376" x2="-368.3852" y2="-158.7376"/>
</g><g transform="translate(0.17079,0) scale(0.49956) translate(425.5852,171.7376)" stroke="#006600" stroke-width="1.80158" opacity="1" fill="none">
<line x1="-371.6352" y1="-155.4876" x2="-365.1352" y2="-148.9876"/>
</g><g transform="translate(0.17079,0) scale(0.49956) translate(425.5852,171.7376)" stroke="#ffffff" stroke-width="0.60053" opacity="1" fill="none">
<line x1="-371.6352" y1="-155.4876" x2="-365.1352" y2="-148.9876"/>
</g><g transform="translate(0.17079,0) scale(0.49956) translate(425.5852,171.7376)" stroke="#006600" stroke-width="1.80158" opacity="1" fill="none">
<line x1="-351.8752" y1="-126.2376" x2="-351.8752" y2="-158.7376"/>
</g><g transform="translate(0.17079,0) scale(0.49956) translate(425.5852,171.7376)" stroke="#ffffff" stroke-width="0.60053" opacity="1" fill="none">
<line x1="-351.8752" y1="-126.2376" x2="-351.8752" y2="-158.7376"/>
</g><g transform="translate(0.17079,0) scale(0.49956) translate(425.5852,171.7376)" stroke="#006600" stroke-width="1.80158" opacity="1" fill="none">
<line x1="-355.1252" y1="-155.4876" x2="-348.6252" y2="-148.9876"/>
</g><g transform="translate(0.17079,0) scale(0.49956) translate(425.5852,171.7376)" stroke="#ffffff" stroke-width="0.60053" opacity="1" fill="none">
<line x1="-355.1252" y1="-155.4876" x2="-348.6252" y2="-148.9876"/>
</g><g transform="translate(0.17079,0) scale(0.49956) translate(65.455,16.25)" stroke="#ffffff" stroke-width="0.60053" opacity="1" fill="none">
<text y="-2" font-size="13" stroke="black" stroke-width="0.30026" fill="white" text-anchor="middle">6&quot;</text>
</g><g transform="translate(0.17079,0) scale(0.49956) translate(425.5852,171.7376)" stroke="#006600" stroke-width="1.80158" opacity="1" fill="none">
<line x1="114" y1="-126.2376" x2="114" y2="-158.7376"/>
</g><g transform="translate(0.17079,0) scale(0.49956) translate(425.5852,171.7376)" stroke="#ffffff" stroke-width="0.60053" opacity="1" fill="none">
<line x1="114" y1="-126.2376" x2="114" y2="-158.7376"/>
</g><g transform="translate(0.17079,0) scale(0.49956) translate(425.5852,171.7376)" stroke="#006600" stroke-width="1.80158" opacity="1" fill="none">
<line x1="110.75" y1="-155.4876" x2="117.25" y2="-148.9876"/>
</g><g transform="translate(0.17079,0) scale(0.49956) translate(425.5852,171.7376)" stroke="#ffffff" stroke-width="0.60053" opacity="1" fill="none">
<line x1="110.75" y1="-155.4876" x2="117.25" y2="-148.9876"/>
</g><g transform="translate(0.17079,0) scale(0.49956) translate(306.6476,16.25)" stroke="#ffffff" stroke-width="0.60053" opacity="1" fill="none">
<text y="-2" font-size="13" stroke="black" stroke-width="0.30026" fill="white" text-anchor="middle">15&apos;3&quot;</text>
</g><g transform="translate(0.17079,0) scale(0.49956) translate(425.5852,171.7376)" stroke="#006600" stroke-width="1.80158" opacity="1" fill="none">
<line x1="117.45419" y1="-126.2376" x2="117.45419" y2="-158.7376"/>
</g><g transform="translate(0.17079,0) scale(0.49956) translate(425.5852,171.7376)" stroke="#ffffff" stroke-width="0.60053" opacity="1" fill="none">
<line x1="117.45419" y1="-126.2376" x2="117.45419" y2="-158.7376"/>
</g><g transform="translate(0.17079,0) scale(0.49956) translate(425.5852,171.7376)" stroke="#006600" stroke-width="1.80158" opacity="1" fill="none">
<line x1="114.20419" y1="-155.4876" x2="120.70419" y2="-148.9876"/>
</g><g transform="translate(0.17079,0) scale(0.49956) translate(425.5852,171.7376)" stroke="#ffffff" stroke-width="0.60053" opacity="1" fill="none">
<line x1="114.20419" y1="-155.4876" x2="120.70419" y2="-148.9876"/>
</g><g transform="translate(0.17079,0) scale(0.49956) translate(541.31229,16.25)" stroke="#ffffff" stroke-width="0.60053" opacity="1" fill="none">
<text y="-2" font-size="13" stroke="black" stroke-width="0.30026" fill="white" text-anchor="middle">1&quot;</text>
</g><g transform="translate(0.17079,0) scale(0.49956) translate(425.5852,171.7376)" stroke="#006600" stroke-width="1.80158" opacity="1" fill="none">
<line x1="126.00039" y1="-126.2376" x2="126.00039" y2="-158.7376"/>
</g><g transform="translate(0.17079,0) scale(0.49956) translate(425.5852,171.7376)" stroke="#ffffff" stroke-width="0.60053" opacity="1" fill="none">
<line x1="126.00039" y1="-126.2376" x2="126.00039" y2="-158.7376"/>
</g><g transform="translate(0.17079,0) scale(0.49956) translate(425.5852,171.7376)" stroke="#006600" stroke-width="1.80158" opacity="1" fill="none">
<line x1="122.75039" y1="-155.4876" x2="129.25039" y2="-148.9876"/>
</g><g transform="translate(0.17079,0) scale(0.49956) translate(425.5852,171.7376)" stroke="#ffffff" stroke-width="0.60053" opacity="1" fill="none">
<line x1="122.75039" y1="-155.4876" x2="129.25039" y2="-148.9876"/>
</g><g transform="translate(0.17079,0) scale(0.49956) translate(547.31249,16.25)" stroke="#ffffff" stroke-width="0.60053" opacity="1" fill="none">
<text y="-2" font-size="13" stroke="black" stroke-width="0.30026" fill="white" text-anchor="middle">3&quot;</text>
</g><g transform="translate(0.17079,0) scale(0.49956) translate(425.5852,171.7376)" stroke="#006600" stroke-width="1.80158" opacity="1" fill="none">
<line x1="538.46009" y1="-126.2376" x2="538.46009" y2="-158.7376"/>
</g><g transform="translate(0.17079,0) scale(0.49956) translate(425.5852,171.7376)" stroke="#ffffff" stroke-width="0.60053" opacity="1" fill="none">
<line x1="538.46009" y1="-126.2376" x2="538.46009" y2="-158.7376"/>
</g><g transform="translate(0.17079,0) scale(0.49956) translate(425.5852,171.7376)" stroke="#006600" stroke-width="1.80158" opacity="1" fill="none">
<line x1="535.21009" y1="-155.4876" x2="541.71009" y2="-148.9876"/>
</g><g transform="translate(0.17079,0) scale(0.49956) translate(425.5852,171.7376)" stroke="#ffffff" stroke-width="0.60053" opacity="1" fill="none">
<line x1="535.21009" y1="-155.4876" x2="541.71009" y2="-148.9876"/>
</g><g transform="translate(0.17079,0) scale(0.49956) translate(757.81544,16.25)" stroke="#ffffff" stroke-width="0.60053" opacity="1" fill="none">
<text y="-2" font-size="13" stroke="black" stroke-width="0.30026" fill="white" text-anchor="middle">13&apos;6&quot;</text>
</g><g transform="translate(0.17079,0) scale(0.49956) translate(425.5852,171.7376)" stroke="#006600" stroke-width="1.80158" opacity="1" fill="none">
<line x1="558.16412" y1="-126.2376" x2="558.16412" y2="-158.7376"/>
</g><g transform="translate(0.17079,0) scale(0.49956) translate(425.5852,171.7376)" stroke="#ffffff" stroke-width="0.60053" opacity="1" fill="none">
<line x1="558.16412" y1="-126.2376" x2="558.16412" y2="-158.7376"/>
</g><g transform="translate(0.17079,0) scale(0.49956) translate(425.5852,171.7376)" stroke="#006600" stroke-width="1.80158" opacity="1" fill="none">
<line x1="554.91412" y1="-155.4876" x2="561.41412" y2="-148.9876"/>
</g><g transform="translate(0.17079,0) scale(0.49956) translate(425.5852,171.7376)" stroke="#ffffff" stroke-width="0.60053" opacity="1" fill="none">
<line x1="554.91412" y1="-155.4876" x2="561.41412" y2="-148.9876"/>
</g><g transform="translate(0.17079,0) scale(0.49956) translate(973.89731,16.25)" stroke="#ffffff" stroke-width="0.60053" opacity="1" fill="none">
<text y="-2" font-size="13" stroke="black" stroke-width="0.30026" fill="white" text-anchor="middle">8&quot;</text>
</g><g transform="translate(0.17079,0) scale(0.49956) translate(425.5852,171.7376)" stroke="#006600" stroke-width="1.80158" opacity="1" fill="none">
<line x1="575.4601" y1="-126.2376" x2="575.4601" y2="-158.7376"/>
</g><g transform="translate(0.17079,0) scale(0.49956) translate(425.5852,171.7376)" stroke="#ffffff" stroke-width="0.60053" opacity="1" fill="none">
<line x1="575.4601" y1="-126.2376" x2="575.4601" y2="-158.7376"/>
</g><g transform="translate(0.17079,0) scale(0.49956) translate(425.5852,171.7376)" stroke="#006600" stroke-width="1.80158" opacity="1" fill="none">
<line x1="572.2101" y1="-155.4876" x2="578.7101" y2="-148.9876"/>
</g><g transform="translate(0.17079,0) scale(0.49956) translate(425.5852,171.7376)" stroke="#ffffff" stroke-width="0.60053" opacity="1" fill="none">
<line x1="572.2101" y1="-155.4876" x2="578.7101" y2="-148.9876"/>
</g><g transform="translate(0.17079,0) scale(0.49956) translate(992.39731,16.25)" stroke="#ffffff" stroke-width="0.60053" opacity="1" fill="none">
<text y="-2" font-size="13" stroke="black" stroke-width="0.30026" fill="white" text-anchor="middle">7&quot;</text>
</g><g transform="translate(0.17079,0) scale(0.49956) translate(425.5852,171.7376)" stroke="#006600" stroke-width="1.80158" opacity="1" fill="none">
<line x1="-374.8852" y1="1400.1586" x2="581.9601" y2="1400.1586"/>
</g><g transform="translate(0.17079,0) scale(0.49956) translate(425.5852,171.7376)" stroke="#ffffff" stroke-width="0.60053" opacity="1" fill="none">
<line x1="-374.8852" y1="1400.1586" x2="581.9601" y2="1400.1586"/>
</g><g transform="translate(0.17079,0) scale(0.49956) translate(425.5852,171.7376)" stroke="#006600" stroke-width="1.80158" opacity="1" fill="none">
<line x1="-368.3852" y1="1374.1586" x2="-368.3852" y2="1406.6586"/>
</g><g transform="translate(0.17079,0) scale(0.49956) translate(425.5852,171.7376)" stroke="#ffffff" stroke-width="0.60053" opacity="1" fill="none">
<line x1="-368.3852" y1="1374.1586" x2="-368.3852" y2="1406.6586"/>
</g><g transform="translate(0.17079,0) scale(0.49956) translate(425.5852,171.7376)" stroke="#006600" stroke-width="1.80158" opacity="1" fill="none">
<line x1="-371.6352" y1="1396.9086" x2="-365.1352" y2="1403.4086"/>
</g><g transform="translate(0.17079,0) scale(0.49956) translate(425.5852,171.7376)" stroke="#ffffff" stroke-width="0.60053" opacity="1" fill="none">
<line x1="-371.6352" y1="1396.9086" x2="-365.1352" y2="1403.4086"/>
</g><g transform="translate(0.17079,0) scale(0.49956) translate(425.5852,171.7376)" stroke="#006600" stroke-width="1.80158" opacity="1" fill="none">
<line x1="-351.8752" y1="1374.1586" x2="-351.8752" y2="1406.6586"/>
</g><g transform="translate(0.17079,0) scale(0.49956) translate(425.5852,171.7376)" stroke="#ffffff" stroke-width="0.60053" opacity="1" fill="none">
<line x1="-351.8752" y1="1374.1586" x2="-351.8752" y2="1406.6586"/>
</g><g transform="translate(0.17079,0) scale(0.49956) translate(425.5852,171.7376)" stroke="#006600" stroke-width="1.80158" opacity="1" fill="none">
<line x1="-355.1252" y1="1396.9086" x2="-348.6252" y2="1403.4086"/>
</g><g transform="translate(0.17079,0) scale(0.49956) translate(425.5852,171.7376)" stroke="#ffffff" stroke-width="0.60053" opacity="1" fill="none">
<line x1="-355.1252" y1="1396.9086" x2="-348.6252" y2="1403.4086"/>
</g><g transform="translate(0.17079,0) scale(0.49956) translate(65.455,1568.6462)" stroke="#ffffff" stroke-width="0.60053" opacity="1" fill="none">
<text y="-2" font-size="13" stroke="black" stroke-width="0.30026" fill="white" text-anchor="middle">6&quot;</text>
</g><g transform="translate(0.17079,0) scale(0.49956) translate(425.5852,171.7376)" stroke="#006600" stroke-width="1.80158" opacity="1" fill="none">
<line x1="114.00039" y1="1374.1586" x2="114.00039" y2="1406.6586"/>
</g><g transform="translate(0.17079,0) scale(0.49956) translate(425.5852,171.7376)" stroke="#ffffff" stroke-width="0.60053" opacity="1" fill="none">
<line x1="114.00039" y1="1374.1586" x2="114.00039" y2="1406.6586"/>
</g><g transform="translate(0.17079,0) scale(0.49956) translate(425.5852,171.7376)" stroke="#006600" stroke-width="1.80158" opacity="1" fill="none">
<line x1="110.75039" y1="1396.9086" x2="117.25039" y2="1403.4086"/>
</g><g transform="translate(0.17079,0) scale(0.49956) translate(425.5852,171.7376)" stroke="#ffffff" stroke-width="0.60053" opacity="1" fill="none">
<line x1="110.75039" y1="1396.9086" x2="117.25039" y2="1403.4086"/>
</g><g transform="translate(0.17079,0) scale(0.49956) translate(306.64779,1568.6462)" stroke="#ffffff" stroke-width="0.60053" opacity="1" fill="none">
<text y="-2" font-size="13" stroke="black" stroke-width="0.30026" fill="white" text-anchor="middle">15&apos;3&quot;</text>
</g><g transform="translate(0.17079,0) scale(0.49956) translate(425.5852,171.7376)" stroke="#006600" stroke-width="1.80158" opacity="1" fill="none">
<line x1="126.00038" y1="1374.1586" x2="126.00038" y2="1406.6586"/>
</g><g transform="translate(0.17079,0) scale(0.49956) translate(425.5852,171.7376)" stroke="#ffffff" stroke-width="0.60053" opacity="1" fill="none">
<line x1="126.00038" y1="1374.1586" x2="126.00038" y2="1406.6586"/>
</g><g transform="translate(0.17079,0) scale(0.49956) translate(425.5852,171.7376)" stroke="#006600" stroke-width="1.80158" opacity="1" fill="none">
<line x1="122.75038" y1="1396.9086" x2="129.25038" y2="1403.4086"/>
</g><g transform="translate(0.17079,0) scale(0.49956) translate(425.5852,171.7376)" stroke="#ffffff" stroke-width="0.60053" opacity="1" fill="none">
<line x1="122.75038" y1="1396.9086" x2="129.25038" y2="1403.4086"/>
</g><g transform="translate(0.17079,0) scale(0.49956) translate(545.58559,1568.6462)" stroke="#ffffff" stroke-width="0.60053" opacity="1" fill="none">
<text y="-2" font-size="13" stroke="black" stroke-width="0.30026" fill="white" text-anchor="middle">5&quot;</text>
</g><g transform="translate(0.17079,0) scale(0.49956) translate(425.5852,171.7376)" stroke="#006600" stroke-width="1.80158" opacity="1" fill="none">
<line x1="558.16412" y1="1374.1586" x2="558.16412" y2="1406.6586"/>
</g><g transform="translate(0.17079,0) scale(0.49956) translate(425.5852,171.7376)" stroke="#ffffff" stroke-width="0.60053" opacity="1" fill="none">
<line x1="558.16412" y1="1374.1586" x2="558.16412" y2="1406.6586"/>
</g><g transform="translate(0.17079,0) scale(0.49956) translate(425.5852,171.7376)" stroke="#006600" stroke-width="1.80158" opacity="1" fill="none">
<line x1="554.91412" y1="1396.9086" x2="561.41412" y2="1403.4086"/>
</g><g transform="translate(0.17079,0) scale(0.49956) translate(425.5852,171.7376)" stroke="#ffffff" stroke-width="0.60053" opacity="1" fill="none">
<line x1="554.91412" y1="1396.9086" x2="561.41412" y2="1403.4086"/>
</g><g transform="translate(0.17079,0) scale(0.49956) translate(767.66745,1568.6462)" stroke="#ffffff" stroke-width="0.60053" opacity="1" fill="none">
<text y="-2" font-size="13" stroke="black" stroke-width="0.30026" fill="white" text-anchor="middle">14&apos;2&quot;</text>
</g><g transform="translate(0.17079,0) scale(0.49956) translate(425.5852,171.7376)" stroke="#006600" stroke-width="1.80158" opacity="1" fill="none">
<line x1="575.4601" y1="1374.1586" x2="575.4601" y2="1406.6586"/>
</g><g transform="translate(0.17079,0) scale(0.49956) translate(425.5852,171.7376)" stroke="#ffffff" stroke-width="0.60053" opacity="1" fill="none">
<line x1="575.4601" y1="1374.1586" x2="575.4601" y2="1406.6586"/>
</g><g transform="translate(0.17079,0) scale(0.49956) translate(425.5852,171.7376)" stroke="#006600" stroke-width="1.80158" opacity="1" fill="none">
<line x1="572.2101" y1="1396.9086" x2="578.7101" y2="1403.4086"/>
</g><g transform="translate(0.17079,0) scale(0.49956) translate(425.5852,171.7376)" stroke="#ffffff" stroke-width="0.60053" opacity="1" fill="none">
<line x1="572.2101" y1="1396.9086" x2="578.7101" y2="1403.4086"/>
</g><g transform="translate(0.17079,0) scale(0.49956) translate(992.39731,1568.6462)" stroke="#ffffff" stroke-width="0.60053" opacity="1" fill="none">
<text y="-2" font-size="13" stroke="black" stroke-width="0.30026" fill="white" text-anchor="middle">7&quot;</text>
</g><g transform="translate(0.17079,0) scale(0.49956) translate(425.5852,171.7376)" stroke="#006600" stroke-width="1.80158" opacity="1" fill="none">
<line x1="-406.0852" y1="-121.0376" x2="-406.0852" y2="1368.9586"/>
</g><g transform="translate(0.17079,0) scale(0.49956) translate(425.5852,171.7376)" stroke="#ffffff" stroke-width="0.60053" opacity="1" fill="none">
<line x1="-406.0852" y1="-121.0376" x2="-406.0852" y2="1368.9586"/>
</g><g transform="translate(0.17079,0) scale(0.49956) translate(425.5852,171.7376)" stroke="#006600" stroke-width="1.80158" opacity="1" fill="none">
<line x1="-380.0852" y1="-114.5376" x2="-412.5852" y2="-114.5376"/>
</g><g transform="translate(0.17079,0) scale(0.49956) translate(425.5852,171.7376)" stroke="#ffffff" stroke-width="0.60053" opacity="1" fill="none">
<line x1="-380.0852" y1="-114.5376" x2="-412.5852" y2="-114.5376"/>
</g><g transform="translate(0.17079,0) scale(0.49956) translate(425.5852,171.7376)" stroke="#006600" stroke-width="1.80158" opacity="1" fill="none">
<line x1="-402.8352" y1="-117.7876" x2="-409.3352" y2="-111.2876"/>
</g><g transform="translate(0.17079,0) scale(0.49956) translate(425.5852,171.7376)" stroke="#ffffff" stroke-width="0.60053" opacity="1" fill="none">
<line x1="-402.8352" y1="-117.7876" x2="-409.3352" y2="-111.2876"/>
</g><g transform="translate(0.17079,0) scale(0.49956) translate(425.5852,171.7376)" stroke="#006600" stroke-width="1.80158" opacity="1" fill="none">
<line x1="-380.0852" y1="-89.5376" x2="-412.5852" y2="-89.5376"/>
</g><g transform="translate(0.17079,0) scale(0.49956) translate(425.5852,171.7376)" stroke="#ffffff" stroke-width="0.60053" opacity="1" fill="none">
<line x1="-380.0852" y1="-89.5376" x2="-412.5852" y2="-89.5376"/>
</g><g transform="translate(0.17079,0) scale(0.49956) translate(425.5852,171.7376)" stroke="#006600" stroke-width="1.80158" opacity="1" fill="none">
<line x1="-402.8352" y1="-92.7876" x2="-409.3352" y2="-86.2876"/>
</g><g transform="translate(0.17079,0) scale(0.49956) translate(425.5852,171.7376)" stroke="#ffffff" stroke-width="0.60053" opacity="1" fill="none">
<line x1="-402.8352" y1="-92.7876" x2="-409.3352" y2="-86.2876"/>
</g><g transform="translate(0.17079,0) scale(0.49956) translate(3.25,69.7) rotate(270) translate(0,13)" stroke="#ffffff" stroke-width="0.60053" opacity="1" fill="none">
<text y="-2" font-size="13" stroke="black" stroke-width="0.30026" fill="white" text-anchor="middle">10&quot;</text>
</g><g transform="translate(0.17079,0) scale(0.49956) translate(425.5852,171.7376)" stroke="#006600" stroke-width="1.80158" opacity="1" fill="none">
<line x1="-380.0852" y1="1018.8991" x2="-412.5852" y2="1018.8991"/>
</g><g transform="translate(0.17079,0) scale(0.49956) translate(425.5852,171.7376)" stroke="#ffffff" stroke-width="0.60053" opacity="1" fill="none">
<line x1="-380.0852" y1="1018.8991" x2="-412.5852" y2="1018.8991"/>
</g><g transform="translate(0.17079,0) scale(0.49956) translate(425.5852,171.7376)" stroke="#006600" stroke-width="1.80158" opacity="1" fill="none">
<line x1="-402.8352" y1="1015.6491" x2="-409.3352" y2="1022.1491"/>
</g><g transform="translate(0.17079,0) scale(0.49956) translate(425.5852,171.7376)" stroke="#ffffff" stroke-width="0.60053" opacity="1" fill="none">
<line x1="-402.8352" y1="1015.6491" x2="-409.3352" y2="1022.1491"/>
</g><g transform="translate(0.17079,0) scale(0.49956) translate(3.25,636.41835) rotate(270) translate(0,13)" stroke="#ffffff" stroke-width="0.60053" opacity="1" fill="none">
<text y="-2" font-size="13" stroke="black" stroke-width="0.30026" fill="white" text-anchor="middle">36&apos;4&quot;</text>
</g><g transform="translate(0.17079,0) scale(0.49956) translate(425.5852,171.7376)" stroke="#006600" stroke-width="1.80158" opacity="1" fill="none">
<line x1="-380.0852" y1="1030.8991" x2="-412.5852" y2="1030.8991"/>
</g><g transform="translate(0.17079,0) scale(0.49956) translate(425.5852,171.7376)" stroke="#ffffff" stroke-width="0.60053" opacity="1" fill="none">
<line x1="-380.0852" y1="1030.8991" x2="-412.5852" y2="1030.8991"/>
</g><g transform="translate(0.17079,0) scale(0.49956) translate(425.5852,171.7376)" stroke="#006600" stroke-width="1.80158" opacity="1" fill="none">
<line x1="-402.8352" y1="1027.6491" x2="-409.3352" y2="1034.1491"/>
</g><g transform="translate(0.17079,0) scale(0.49956) translate(425.5852,171.7376)" stroke="#ffffff" stroke-width="0.60053" opacity="1" fill="none">
<line x1="-402.8352" y1="1027.6491" x2="-409.3352" y2="1034.1491"/>
</g><g transform="translate(0.17079,0) scale(0.49956) translate(3.25,1196.6367) rotate(270) translate(0,13)" stroke="#ffffff" stroke-width="0.60053" opacity="1" fill="none">
<text y="-2" font-size="13" stroke="black" stroke-width="0.30026" fill="white" text-anchor="middle">5&quot;</text>
</g><g transform="translate(0.17079,0) scale(0.49956) translate(425.5852,171.7376)" stroke="#006600" stroke-width="1.80158" opacity="1" fill="none">
<line x1="-380.0852" y1="1345.94856" x2="-412.5852" y2="1345.94856"/>
</g><g transform="translate(0.17079,0) scale(0.49956) translate(425.5852,171.7376)" stroke="#ffffff" stroke-width="0.60053" opacity="1" fill="none">
<line x1="-380.0852" y1="1345.94856" x2="-412.5852" y2="1345.94856"/>
</g><g transform="translate(0.17079,0) scale(0.49956) translate(425.5852,171.7376)" stroke="#006600" stroke-width="1.80158" opacity="1" fill="none">
<line x1="-402.8352" y1="1342.69856" x2="-409.3352" y2="1349.19856"/>
</g><g transform="translate(0.17079,0) scale(0.49956) translate(425.5852,171.7376)" stroke="#ffffff" stroke-width="0.60053" opacity="1" fill="none">
<line x1="-402.8352" y1="1342.69856" x2="-409.3352" y2="1349.19856"/>
</g><g transform="translate(0.17079,0) scale(0.49956) translate(3.25,1360.16143) rotate(270) translate(0,13)" stroke="#ffffff" stroke-width="0.60053" opacity="1" fill="none">
<text y="-2" font-size="13" stroke="black" stroke-width="0.30026" fill="white" text-anchor="middle">10&apos;4&quot;</text>
</g><g transform="translate(0.17079,0) scale(0.49956) translate(425.5852,171.7376)" stroke="#006600" stroke-width="1.80158" opacity="1" fill="none">
<line x1="-380.0852" y1="1362.4586" x2="-412.5852" y2="1362.4586"/>
</g><g transform="translate(0.17079,0) scale(0.49956) translate(425.5852,171.7376)" stroke="#ffffff" stroke-width="0.60053" opacity="1" fill="none">
<line x1="-380.0852" y1="1362.4586" x2="-412.5852" y2="1362.4586"/>
</g><g transform="translate(0.17079,0) scale(0.49956) translate(425.5852,171.7376)" stroke="#006600" stroke-width="1.80158" opacity="1" fill="none">
<line x1="-402.8352" y1="1359.2086" x2="-409.3352" y2="1365.7086"/>
</g><g transform="translate(0.17079,0) scale(0.49956) translate(425.5852,171.7376)" stroke="#ffffff" stroke-width="0.60053" opacity="1" fill="none">
<line x1="-402.8352" y1="1359.2086" x2="-409.3352" y2="1365.7086"/>
</g><g transform="translate(0.17079,0) scale(0.49956) translate(3.25,1525.94118) rotate(270) translate(0,13)" stroke="#ffffff" stroke-width="0.60053" opacity="1" fill="none">
<text y="-2" font-size="13" stroke="black" stroke-width="0.30026" fill="white" text-anchor="middle">7&quot;</text>
</g><g transform="translate(0.17079,0) scale(0.49956) translate(425.5852,171.7376)" stroke="#006600" stroke-width="1.80158" opacity="1" fill="none">
<line x1="613.1601" y1="-121.0376" x2="613.1601" y2="1368.9586"/>
</g><g transform="translate(0.17079,0) scale(0.49956) translate(425.5852,171.7376)" stroke="#ffffff" stroke-width="0.60053" opacity="1" fill="none">
<line x1="613.1601" y1="-121.0376" x2="613.1601" y2="1368.9586"/>
</g><g transform="translate(0.17079,0) scale(0.49956) translate(425.5852,171.7376)" stroke="#006600" stroke-width="1.80158" opacity="1" fill="none">
<line x1="587.1601" y1="-114.5376" x2="619.6601" y2="-114.5376"/>
</g><g transform="translate(0.17079,0) scale(0.49956) translate(425.5852,171.7376)" stroke="#ffffff" stroke-width="0.60053" opacity="1" fill="none">
<line x1="587.1601" y1="-114.5376" x2="619.6601" y2="-114.5376"/>
</g><g transform="translate(0.17079,0) scale(0.49956) translate(425.5852,171.7376)" stroke="#006600" stroke-width="1.80158" opacity="1" fill="none">
<line x1="616.4101" y1="-117.7876" x2="609.9101" y2="-111.2876"/>
</g><g transform="translate(0.17079,0) scale(0.49956) translate(425.5852,171.7376)" stroke="#ffffff" stroke-width="0.60053" opacity="1" fill="none">
<line x1="616.4101" y1="-117.7876" x2="609.9101" y2="-111.2876"/>
</g><g transform="translate(0.17079,0) scale(0.49956) translate(425.5852,171.7376)" stroke="#006600" stroke-width="1.80158" opacity="1" fill="none">
<line x1="587.1601" y1="-89.5376" x2="619.6601" y2="-89.5376"/>
</g><g transform="translate(0.17079,0) scale(0.49956) translate(425.5852,171.7376)" stroke="#ffffff" stroke-width="0.60053" opacity="1" fill="none">
<line x1="587.1601" y1="-89.5376" x2="619.6601" y2="-89.5376"/>
</g><g transform="translate(0.17079,0) scale(0.49956) translate(425.5852,171.7376)" stroke="#006600" stroke-width="1.80158" opacity="1" fill="none">
<line x1="616.4101" y1="-92.7876" x2="609.9101" y2="-86.2876"/>
</g><g transform="translate(0.17079,0) scale(0.49956) translate(425.5852,171.7376)" stroke="#ffffff" stroke-width="0.60053" opacity="1" fill="none">
<line x1="616.4101" y1="-92.7876" x2="609.9101" y2="-86.2876"/>
</g><g transform="translate(0.17079,0) scale(0.49956) translate(1022.4953,69.7) rotate(270) translate(0,13)" stroke="#ffffff" stroke-width="0.60053" opacity="1" fill="none">
<text y="-2" font-size="13" stroke="black" stroke-width="0.30026" fill="white" text-anchor="middle">10&quot;</text>
</g><g transform="translate(0.17079,0) scale(0.49956) translate(425.5852,171.7376)" stroke="#006600" stroke-width="1.80158" opacity="1" fill="none">
<line x1="587.1601" y1="-77.53765" x2="619.6601" y2="-77.53765"/>
</g><g transform="translate(0.17079,0) scale(0.49956) translate(425.5852,171.7376)" stroke="#ffffff" stroke-width="0.60053" opacity="1" fill="none">
<line x1="587.1601" y1="-77.53765" x2="619.6601" y2="-77.53765"/>
</g><g transform="translate(0.17079,0) scale(0.49956) translate(425.5852,171.7376)" stroke="#006600" stroke-width="1.80158" opacity="1" fill="none">
<line x1="616.4101" y1="-80.78765" x2="609.9101" y2="-74.28765"/>
</g><g transform="translate(0.17079,0) scale(0.49956) translate(425.5852,171.7376)" stroke="#ffffff" stroke-width="0.60053" opacity="1" fill="none">
<line x1="616.4101" y1="-80.78765" x2="609.9101" y2="-74.28765"/>
</g><g transform="translate(0.17079,0) scale(0.49956) translate(1022.4953,88.19997) rotate(270) translate(0,13)" stroke="#ffffff" stroke-width="0.60053" opacity="1" fill="none">
<text y="-2" font-size="13" stroke="black" stroke-width="0.30026" fill="white" text-anchor="middle">5&quot;</text>
</g><g transform="translate(0.17079,0) scale(0.49956) translate(425.5852,171.7376)" stroke="#006600" stroke-width="1.80158" opacity="1" fill="none">
<line x1="587.1601" y1="474.58988" x2="619.6601" y2="474.58988"/>
</g><g transform="translate(0.17079,0) scale(0.49956) translate(425.5852,171.7376)" stroke="#ffffff" stroke-width="0.60053" opacity="1" fill="none">
<line x1="587.1601" y1="474.58988" x2="619.6601" y2="474.58988"/>
</g><g transform="translate(0.17079,0) scale(0.49956) translate(425.5852,171.7376)" stroke="#006600" stroke-width="1.80158" opacity="1" fill="none">
<line x1="616.4101" y1="471.33988" x2="609.9101" y2="477.83988"/>
</g><g transform="translate(0.17079,0) scale(0.49956) translate(425.5852,171.7376)" stroke="#ffffff" stroke-width="0.60053" opacity="1" fill="none">
<line x1="616.4101" y1="471.33988" x2="609.9101" y2="477.83988"/>
</g><g transform="translate(0.17079,0) scale(0.49956) translate(1022.4953,370.26372) rotate(270) translate(0,13)" stroke="#ffffff" stroke-width="0.60053" opacity="1" fill="none">
<text y="-2" font-size="13" stroke="black" stroke-width="0.30026" fill="white" text-anchor="middle">18&apos;1&quot;</text>
</g><g transform="translate(0.17079,0) scale(0.49956) translate(425.5852,171.7376)" stroke="#006600" stroke-width="1.80158" opacity="1" fill="none">
<line x1="587.1601" y1="486.58988" x2="619.6601" y2="486.58988"/>
</g><g transform="translate(0.17079,0) scale(0.49956) translate(425.5852,171.7376)" stroke="#ffffff" stroke-width="0.60053" opacity="1" fill="none">
<line x1="587.1601" y1="486.58988" x2="619.6601" y2="486.58988"/>
</g><g transform="translate(0.17079,0) scale(0.49956) translate(425.5852,171.7376)" stroke="#006600" stroke-width="1.80158" opacity="1" fill="none">
<line x1="616.4101" y1="483.33988" x2="609.9101" y2="489.83988"/>
</g><g transform="translate(0.17079,0) scale(0.49956) translate(425.5852,171.7376)" stroke="#ffffff" stroke-width="0.60053" opacity="1" fill="none">
<line x1="616.4101" y1="483.33988" x2="609.9101" y2="489.83988"/>
</g><g transform="translate(0.17079,0) scale(0.49956) translate(1022.4953,652.32748) rotate(270) translate(0,13)" stroke="#ffffff" stroke-width="0.60053" opacity="1" fill="none">
<text y="-2" font-size="13" stroke="black" stroke-width="0.30026" fill="white" text-anchor="middle">5&quot;</text>
</g><g transform="translate(0.17079,0) scale(0.49956) translate(425.5852,171.7376)" stroke="#006600" stroke-width="1.80158" opacity="1" fill="none">
<line x1="587.1601" y1="825.9933" x2="619.6601" y2="825.9933"/>
</g><g transform="translate(0.17079,0) scale(0.49956) translate(425.5852,171.7376)" stroke="#ffffff" stroke-width="0.60053" opacity="1" fill="none">
<line x1="587.1601" y1="825.9933" x2="619.6601" y2="825.9933"/>
</g><g transform="translate(0.17079,0) scale(0.49956) translate(425.5852,171.7376)" stroke="#006600" stroke-width="1.80158" opacity="1" fill="none">
<line x1="616.4101" y1="822.7433" x2="609.9101" y2="829.2433"/>
</g><g transform="translate(0.17079,0) scale(0.49956) translate(425.5852,171.7376)" stroke="#ffffff" stroke-width="0.60053" opacity="1" fill="none">
<line x1="616.4101" y1="822.7433" x2="609.9101" y2="829.2433"/>
</g><g transform="translate(0.17079,0) scale(0.49956) translate(1022.4953,828.02919) rotate(270) translate(0,13)" stroke="#ffffff" stroke-width="0.60053" opacity="1" fill="none">
<text y="-2" font-size="13" stroke="black" stroke-width="0.30026" fill="white" text-anchor="middle">11&apos;2&quot;</text>
</g><g transform="translate(0.17079,0) scale(0.49956) translate(425.5852,171.7376)" stroke="#006600" stroke-width="1.80158" opacity="1" fill="none">
<line x1="587.1601" y1="837.9933" x2="619.6601" y2="837.9933"/>
</g><g transform="translate(0.17079,0) scale(0.49956) translate(425.5852,171.7376)" stroke="#ffffff" stroke-width="0.60053" opacity="1" fill="none">
<line x1="587.1601" y1="837.9933" x2="619.6601" y2="837.9933"/>
</g><g transform="translate(0.17079,0) scale(0.49956) translate(425.5852,171.7376)" stroke="#006600" stroke-width="1.80158" opacity="1" fill="none">
<line x1="616.4101" y1="834.7433" x2="609.9101" y2="841.2433"/>
</g><g transform="translate(0.17079,0) scale(0.49956) translate(425.5852,171.7376)" stroke="#ffffff" stroke-width="0.60053" opacity="1" fill="none">
<line x1="616.4101" y1="834.7433" x2="609.9101" y2="841.2433"/>
</g><g transform="translate(0.17079,0) scale(0.49956) translate(1022.4953,1003.7309) rotate(270) translate(0,13)" stroke="#ffffff" stroke-width="0.60053" opacity="1" fill="none">
<text y="-2" font-size="13" stroke="black" stroke-width="0.30026" fill="white" text-anchor="middle">5&quot;</text>
</g><g transform="translate(0.17079,0) scale(0.49956) translate(425.5852,171.7376)" stroke="#006600" stroke-width="1.80158" opacity="1" fill="none">
<line x1="587.1601" y1="1018.8991" x2="619.6601" y2="1018.8991"/>
</g><g transform="translate(0.17079,0) scale(0.49956) translate(425.5852,171.7376)" stroke="#ffffff" stroke-width="0.60053" opacity="1" fill="none">
<line x1="587.1601" y1="1018.8991" x2="619.6601" y2="1018.8991"/>
</g><g transform="translate(0.17079,0) scale(0.49956) translate(425.5852,171.7376)" stroke="#006600" stroke-width="1.80158" opacity="1" fill="none">
<line x1="616.4101" y1="1015.6491" x2="609.9101" y2="1022.1491"/>
</g><g transform="translate(0.17079,0) scale(0.49956) translate(425.5852,171.7376)" stroke="#ffffff" stroke-width="0.60053" opacity="1" fill="none">
<line x1="616.4101" y1="1015.6491" x2="609.9101" y2="1022.1491"/>
</g><g transform="translate(0.17079,0) scale(0.49956) translate(1022.4953,1100.1838) rotate(270) translate(0,13)" stroke="#ffffff" stroke-width="0.60053" opacity="1" fill="none">
<text y="-2" font-size="13" stroke="black" stroke-width="0.30026" fill="white" text-anchor="middle">5&apos;11&quot;</text>
</g><g transform="translate(0.17079,0) scale(0.49956) translate(425.5852,171.7376)" stroke="#006600" stroke-width="1.80158" opacity="1" fill="none">
<line x1="587.1601" y1="1030.8991" x2="619.6601" y2="1030.8991"/>
</g><g transform="translate(0.17079,0) scale(0.49956) translate(425.5852,171.7376)" stroke="#ffffff" stroke-width="0.60053" opacity="1" fill="none">
<line x1="587.1601" y1="1030.8991" x2="619.6601" y2="1030.8991"/>
</g><g transform="translate(0.17079,0) scale(0.49956) translate(425.5852,171.7376)" stroke="#006600" stroke-width="1.80158" opacity="1" fill="none">
<line x1="616.4101" y1="1027.6491" x2="609.9101" y2="1034.1491"/>
</g><g transform="translate(0.17079,0) scale(0.49956) translate(425.5852,171.7376)" stroke="#ffffff" stroke-width="0.60053" opacity="1" fill="none">
<line x1="616.4101" y1="1027.6491" x2="609.9101" y2="1034.1491"/>
</g><g transform="translate(0.17079,0) scale(0.49956) translate(1022.4953,1196.6367) rotate(270) translate(0,13)" stroke="#ffffff" stroke-width="0.60053" opacity="1" fill="none">
<text y="-2" font-size="13" stroke="black" stroke-width="0.30026" fill="white" text-anchor="middle">5&quot;</text>
</g><g transform="translate(0.17079,0) scale(0.49956) translate(425.5852,171.7376)" stroke="#006600" stroke-width="1.80158" opacity="1" fill="none">
<line x1="587.1601" y1="1345.94855" x2="619.6601" y2="1345.94855"/>
</g><g transform="translate(0.17079,0) scale(0.49956) translate(425.5852,171.7376)" stroke="#ffffff" stroke-width="0.60053" opacity="1" fill="none">
<line x1="587.1601" y1="1345.94855" x2="619.6601" y2="1345.94855"/>
</g><g transform="translate(0.17079,0) scale(0.49956) translate(425.5852,171.7376)" stroke="#006600" stroke-width="1.80158" opacity="1" fill="none">
<line x1="616.4101" y1="1342.69855" x2="609.9101" y2="1349.19855"/>
</g><g transform="translate(0.17079,0) scale(0.49956) translate(425.5852,171.7376)" stroke="#ffffff" stroke-width="0.60053" opacity="1" fill="none">
<line x1="616.4101" y1="1342.69855" x2="609.9101" y2="1349.19855"/>
</g><g transform="translate(0.17079,0) scale(0.49956) translate(1022.4953,1360.16143) rotate(270) translate(0,13)" stroke="#ffffff" stroke-width="0.60053" opacity="1" fill="none">
<text y="-2" font-size="13" stroke="black" stroke-width="0.30026" fill="white" text-anchor="middle">10&apos;4&quot;</text>
</g><g transform="translate(0.17079,0) scale(0.49956) translate(425.5852,171.7376)" stroke="#006600" stroke-width="1.80158" opacity="1" fill="none">
<line x1="587.1601" y1="1362.4586" x2="619.6601" y2="1362.4586"/>
</g><g transform="translate(0.17079,0) scale(0.49956) translate(425.5852,171.7376)" stroke="#ffffff" stroke-width="0.60053" opacity="1" fill="none">
<line x1="587.1601" y1="1362.4586" x2="619.6601" y2="1362.4586"/>
</g><g transform="translate(0.17079,0) scale(0.49956) translate(425.5852,171.7376)" stroke="#006600" stroke-width="1.80158" opacity="1" fill="none">
<line x1="616.4101" y1="1359.2086" x2="609.9101" y2="1365.7086"/>
</g><g transform="translate(0.17079,0) scale(0.49956) translate(425.5852,171.7376)" stroke="#ffffff" stroke-width="0.60053" opacity="1" fill="none">
<line x1="616.4101" y1="1359.2086" x2="609.9101" y2="1365.7086"/>
</g><g transform="translate(0.17079,0) scale(0.49956) translate(1022.4953,1525.94118) rotate(270) translate(0,13)" stroke="#ffffff" stroke-width="0.60053" opacity="1" fill="none">
<text y="-2" font-size="13" stroke="black" stroke-width="0.30026" fill="white" text-anchor="middle">7&quot;</text></g></g>
</svg>